<?xml version="1.0" encoding="utf-8"?>
<!-- Generator: Adobe Illustrator 21.1.0, SVG Export Plug-In . SVG Version: 6.00 Build 0)  -->
<svg version="1.1" id="Layer_1" xmlns="http://www.w3.org/2000/svg" xmlns:xlink="http://www.w3.org/1999/xlink" x="0px" y="0px"
	 viewBox="0 0 2100 410" style="enable-background:new 0 0 2100 410;" xml:space="preserve">
<style type="text/css">
	.st0{fill:#FFFFFF;}
	.st1{fill:url(#XMLID_17_);}
</style>
<g id="XMLID_743_">
	<g id="XMLID_33_">
		<g id="XMLID_797_">
			<path id="XMLID_4_" class="st0" d="M898.9,71.1v51.7h-81.2v217.5h-60.6V122.8h-81.2V71.1H898.9z"/>
			<path id="XMLID_6_" class="st0" d="M1105.9,340.3c-3-9.4-6.2-19-9.7-28.8c-3.4-9.9-6.9-19.7-10.3-29.5H980.8
				c-3.4,9.8-6.8,19.7-10.2,29.5c-3.4,9.9-6.6,19.5-9.5,28.7h-62.9c10.1-29,19.7-55.8,28.8-80.4c9.1-24.6,18-47.8,26.7-69.5
				c8.7-21.8,17.3-42.4,25.7-62c8.4-19.6,17.2-38.7,26.3-57.3h57.4c8.8,18.6,17.6,37.7,26.1,57.3c8.6,19.6,17.2,40.2,26,62
				c8.7,21.8,17.6,44.9,26.7,69.5c9.1,24.6,18.7,51.4,28.9,80.4H1105.9z M1033.1,132.1c-1.4,3.9-3.3,9.2-5.9,16
				c-2.6,6.7-5.6,14.5-8.9,23.3s-7,18.5-11.2,29.1c-4.1,10.6-8.3,21.7-12.5,33.4h77c-4.1-11.7-8.1-22.8-12-33.5
				c-3.9-10.6-7.5-20.4-11-29.2c-3.5-8.8-6.5-16.6-9.1-23.3C1036.8,141.2,1034.7,136,1033.1,132.1z"/>
			<path id="XMLID_9_" class="st0" d="M1404.7,288.3v52.1h-179.9V71.1h60.6v217.2H1404.7z"/>
			<path id="XMLID_11_" class="st0" d="M1462.9,71.1h60.6v269.2h-60.6V71.1z"/>
			<path id="XMLID_13_" class="st0" d="M1804.8,71.1v51.7h-81.2v217.5H1663V122.8h-81.2V71.1H1804.8z"/>
			<path id="XMLID_15_" class="st0" d="M1974.8,181.6c10.9-18.3,21.3-36.7,31.1-55c9.8-18.3,18.9-36.8,27.2-55.4h66.8
				c-14.8,29-30,57.1-45.8,84.3c-15.8,27.2-32.5,54.5-50.1,82v102.9h-60.6V238.2c-17.6-27.4-34.4-54.9-50.3-82.4
				c-15.9-27.4-31.3-55.7-46-84.7h70.3c8.3,18.6,17.2,37.1,26.8,55.4C1953.8,144.9,1964,163.2,1974.8,181.6z"/>
		</g>
		<g id="XMLID_794_">
			<path id="XMLID_2_" class="st0" d="M223,71.1v51.7h-81.2v217.5H81.2V122.8H0V71.1H223z"/>
		</g>
	</g>
	<linearGradient id="XMLID_17_" gradientUnits="userSpaceOnUse" x1="447.5185" y1="2.318" x2="447.5185" y2="408.184">
		<stop  offset="0" style="stop-color:#F05A2A"/>
		<stop  offset="1" style="stop-color:#E60C88"/>
	</linearGradient>
	<path id="XMLID_650_" class="st1" d="M581.9,212.9l39.8,1.6l0.2-4.8l-15-0.6l0-4.6l-24.8-0.3c0-0.4,0-0.7,0-1.1l36.6-1.2v0l7.2-0.2
		l-0.2-4.8l-12.2,0.4l0-0.2l-31.5,1.1c0-0.7-0.1-1.5-0.2-2.2l18.5-1.6l-0.1-1.2l39.6-3.7l-0.4-4.8l-58,5.5c-0.1-0.6-0.2-1.2-0.2-1.8
		l36.2-5.2l0,0l13.9-2l0,0l7.7-1.1l-0.7-4.7l-51.3,7.4l-6.5,0.9c-0.1-0.8-0.3-1.5-0.4-2.3l30.5-6.1l-0.3-1.3l28.6-5.9l-1-4.7
		l-59,12.3c-0.1-0.4-0.2-0.8-0.3-1.2l66.4-16.9l-1.2-4.6l-66.4,16.9c-0.5-1.9-1-3.7-1.6-5.5l31.8-10.8l-1.5-4.5l-31.8,10.8
		c-0.2-0.5-0.4-1-0.5-1.5l40.7-16l-1.8-4.5l-40.7,16c-1.2-2.8-2.4-5.5-3.7-8.2l22-11.4l-0.6-1.1l29.7-15.7l-2.2-4.2l-51.6,27.2
		c0-0.1-0.1-0.1-0.1-0.2l27.3-15.7l-2.4-4.2L562.9,136c-0.4-0.7-0.8-1.3-1.2-1.9l20.8-13.5l-0.6-1l27.9-18.4l-2.6-4l-48.7,32.1
		c-0.3-0.4-0.5-0.7-0.8-1.1l6.5-4.7l-0.3-0.4l23-16.8l0,0l5.8-4.2l-2.8-3.9l-35.3,25.8c-0.6-0.8-1.3-1.7-2-2.5l8.5-7.1l-0.2-0.2
		L599,82.6l-3.1-3.7l-7.5,6.3l-1-1.1l-38.6,32.6c0,0-0.1-0.1-0.1-0.1l50.7-46.1l-3.2-3.5l-27.7,25.2l-1.8-1.9l-22.6,21.3
		c-0.9-1-1.9-1.9-2.9-2.9l21.5-23.1l-3.5-3.3l-21.5,23c-0.3-0.2-0.6-0.5-0.8-0.7l28.4-33.3l-3.6-3.1l-28.4,33.2
		c-2.1-1.7-4.3-3.4-6.5-5l21-30l-1.9-1.3L557.9,47l-4-2.7l-32.8,48.3c-0.9-0.6-1.8-1.2-2.7-1.7l8.8-14.8l-0.2-0.1l26.2-44.1
		l-4.1-2.4L526.8,67l-0.8-0.4l12.4-22.6l-4.2-2.3L509.9,86c-0.4-0.2-0.8-0.4-1.3-0.6l3.5-7.2l-0.9-0.4l10-20.8l-4.3-2.1l-13.4,28
		c-1.2-0.6-2.4-1.1-3.7-1.7l18.8-46.8l-4.4-1.8l-18.8,46.9c-0.7-0.3-1.5-0.6-2.2-0.8l10-29.3l-2-0.7l0.8-2.5l-4.6-1.5L487,76.6
		c-0.7-0.2-1.5-0.4-2.3-0.6l8.2-30.4l-4.6-1.2l-4,15l0,0l-4.1,15.4c-2.7-0.7-5.4-1.2-8.2-1.7l5.2-31.1l-4.7-0.8l-5.2,31.1
		c-0.3,0-0.7-0.1-1-0.1l4.4-36.3l-1-0.1l2.7-23.6l-4.8-0.6l-7,59.9c-0.8-0.1-1.6-0.1-2.3-0.2l2.5-39.7l-2.7-0.2l1.4-28.7l-4.8-0.2
		l-3.2,68.4c0,0,0,0,0,0l0.6-50.6l-4.8-0.1L447,45.9h-1.9v24.9c-0.3,0-0.5,0-0.8,0L443,39.6l-4.8,0.2l0.5,12.6l-3.3,0.2l1.2,18.5
		c-1,0.1-1.9,0.1-2.9,0.2l-6.1-50.2l0,0l-0.9-7.7L422,14l7,58c-0.8,0.1-1.5,0.2-2.3,0.3L421,39.1l-4.7,0.8l0.4,2.5l-0.1,0l5.4,30.6
		c-0.5,0.1-1,0.2-1.5,0.3l-9.5-42.6l-4.7,1l6.1,27.1l-0.9,0.2l3.6,15.5c-1.1,0.3-2.1,0.5-3.1,0.8l-10.3-35.1l-4.6,1.3l10.3,35
		c-0.1,0-0.2,0.1-0.3,0.1L397,47l-1.1,0.4L387.2,22l-4.5,1.6l18.9,55.2c-0.3,0.1-0.6,0.2-0.8,0.3l-21.9-56.1l-4.5,1.7l3.5,9.1
		l-4,1.7l9.4,22.5l-5.6-12.3l-4.4,2l3.6,7.9l-3.5,1.7l13.5,28c-0.2,0.1-0.3,0.2-0.5,0.2l-11.6-21.9l-3.7,2l-7.8-13.8l-4.2,2.4
		l20,35.4c0,0-0.1,0-0.1,0.1l-9.7-15.8l-4.1,2.5l9.7,15.8c-0.8,0.5-1.6,1-2.4,1.6L343.6,52l0,0l-4.4-6.4l-3.9,2.7l33.4,47.9
		c-0.6,0.5-1.3,0.9-1.9,1.4l-19.1-24.5l-3.8,2.9l15.5,19.9l-1.4,1.1l-24.6-28.7l-3.6,3.1l28.5,33.2c-1,0.9-2,1.8-3,2.7l-25.6-26.2
		l-3.4,3.4l8.2,8.4l-0.1,0.1l17.4,17.7c-0.3,0.3-0.5,0.5-0.8,0.8l-42.6-39.9l-3.3,3.5l19.6,18.4l-1.3,1.4l23.3,21.3
		c-0.5,0.6-1.1,1.2-1.6,1.9L305.8,86l-3,3.7l39.1,32.1c-0.5,0.6-1,1.2-1.4,1.8l-25.1-18.4l-2.8,3.9l25.1,18.4
		c-0.4,0.6-0.9,1.2-1.3,1.9l-50.4-33.1l-2.6,4l16.4,10.8l-1.2,1.9l34.3,21.9c-0.1,0.2-0.2,0.3-0.3,0.5l-34.4-20l-2.4,4.1l19.5,11.4
		l0,0.1l14.9,8.6c-0.8,1.4-1.6,2.9-2.3,4.3l-32.8-16.1l0,0l-6.5-3.2l-2.1,4.3l39.3,19.2c-0.3,0.6-0.5,1.2-0.8,1.8l-5.4-2.3l-0.1,0.4
		l-11.6-4.9l-1.9,4.4l17.1,7.2c-0.4,0.9-0.7,1.8-1.1,2.7l-47.6-17.1l0,0l-7.3-2.6l-1.6,4.5L320,162c0,0.1,0,0.1-0.1,0.2l-23.7-7.5
		l-0.8,2.4l-6-1.8l-1.4,4.6l29.8,8.9c0,0.1,0,0.1-0.1,0.2l-7.8-2l-0.1,0.3l-22.7-5.9l-1.2,4.6l30.5,7.9c-0.6,2.4-1.1,4.9-1.5,7.4
		l-33.2-5.4l-0.8,4.7l33.2,5.4c-0.1,0.8-0.2,1.6-0.3,2.3l-15.9-1.7l-0.2,2.2l-44.2-4.1l-0.4,4.8l60.1,5.6c-0.1,0.8-0.1,1.6-0.2,2.3
		l-39.8-1.6l-0.2,4.8l15,0.6l0,4.6l24.8,0.3c0,0.4,0,0.7,0,1.1l-36.6,1.2v0l-7.2,0.2l0.2,4.8l12.2-0.4l0,0.2l31.5-1.1
		c0,0.7,0.1,1.5,0.2,2.2l-18.5,1.6l0.1,1.2l-39.6,3.7l0.5,4.8l58-5.5c0.1,0.6,0.2,1.2,0.2,1.8l-36.2,5.2v0l-13.9,2l0,0l-7.7,1.1
		l0.7,4.7l57.8-8.4c0.1,0.8,0.3,1.5,0.4,2.3l-30.5,6.1l0.3,1.3l-28.6,5.9l1,4.7l59.1-12.3c0.1,0.4,0.2,0.8,0.3,1.2l-66.4,16.9
		l1.2,4.6l66.4-16.9c0.5,1.9,1,3.7,1.6,5.5l-31.8,10.8l1.5,4.5l31.8-10.8c0.2,0.5,0.4,1,0.5,1.5l-40.7,16l1.8,4.5l40.7-16
		c1.2,2.8,2.4,5.5,3.7,8.2l-22,11.4l0.6,1.1l-29.7,15.7l2.2,4.2l51.6-27.2c0,0.1,0.1,0.1,0.1,0.2l-27.3,15.7l2.4,4.2l27.3-15.7
		c0.4,0.7,0.8,1.3,1.2,1.9L312.5,290l0.6,1l-27.9,18.4l2.6,4l48.7-32.1c0.3,0.4,0.5,0.7,0.8,1.1l-6.5,4.7l0.3,0.4l-23,16.8l0,0
		l-5.8,4.2l2.8,3.9l35.3-25.8c0.6,0.8,1.3,1.7,2,2.5l-8.5,7.1l0.2,0.2l-37.9,31.5l3.1,3.7l7.5-6.3l1,1.1l38.6-32.6
		c0,0,0.1,0.1,0.1,0.1l-50.7,46.1l3.2,3.5l27.7-25.2l1.8,2l22.6-21.3c0.9,1,1.9,1.9,2.9,2.9L332.4,325l3.5,3.3l21.5-23
		c0.3,0.2,0.6,0.5,0.8,0.7l-28.4,33.3l3.6,3.1l28.4-33.2c2.1,1.7,4.3,3.4,6.5,5l-21,30l1.9,1.3l-12.3,18.1l4,2.7l32.8-48.3
		c0.9,0.6,1.8,1.2,2.7,1.7l-8.8,14.8l0.2,0.1l-26.2,44.1l4.1,2.4l22.3-37.5l0.8,0.4l-12.4,22.6l4.2,2.3l24.3-44.4
		c0.4,0.2,0.8,0.4,1.3,0.6l-3.5,7.2l0.9,0.4l-10,20.8l4.3,2.1l13.4-28.1c1.2,0.6,2.4,1.1,3.7,1.7l-18.8,46.8l4.4,1.8l18.8-46.9
		c0.7,0.3,1.5,0.6,2.2,0.8l-10,29.4l2,0.7l-0.8,2.5l4.6,1.5l10.4-31.9c0.7,0.2,1.5,0.4,2.3,0.6l-8.2,30.4l4.6,1.2l4-15l0,0l4.1-15.4
		c2.7,0.7,5.4,1.2,8.2,1.7l-5.2,31.1l4.7,0.8l5.2-31.1c0.3,0,0.7,0.1,1,0.1l-4.4,36.3l1,0.1l-2.7,23.6l4.8,0.6l7-59.9
		c0.8,0.1,1.6,0.1,2.3,0.2l-2.5,39.8l2.7,0.2l-1.4,28.7l4.8,0.2l3.2-68.4c0,0,0,0,0,0l-0.6,50.6l4.8,0.1l0.3-25.8h1.9v-24.9
		c0.3,0,0.5,0,0.8,0l1.3,31.1l4.8-0.2l-0.5-12.6l3.3-0.2l-1.2-18.5c1-0.1,1.9-0.1,2.9-0.2l6.1,50.2l0,0l0.9,7.7l4.8-0.6l-7-58
		c0.8-0.1,1.5-0.2,2.3-0.3l5.8,33.1l4.7-0.8l-0.4-2.5l0.1,0l-5.4-30.6c0.5-0.1,1-0.2,1.5-0.3l9.5,42.6l4.7-1l-6.1-27.1l0.9-0.2
		l-3.6-15.5c1.1-0.3,2.1-0.5,3.1-0.8l10.3,35.1l4.6-1.3l-10.3-35c0.1,0,0.2-0.1,0.3-0.1l10,29.9l1.1-0.4l8.7,25.4l4.5-1.6
		l-18.9-55.2c0.3-0.1,0.6-0.2,0.8-0.3l21.9,56.1l4.5-1.7l-3.5-9.1l4-1.7l-9.4-22.5l5.6,12.3l4.4-2l-3.6-7.9l3.5-1.7l-13.5-28
		c0.2-0.1,0.3-0.2,0.5-0.2l11.7,21.9l3.7-2l7.8,13.8l4.2-2.4l-20-35.4c0,0,0.1,0,0.1-0.1l9.7,15.8l4.1-2.5l-9.7-15.8
		c0.8-0.5,1.6-1,2.4-1.6l28.9,41.5l0,0l4.4,6.4l3.9-2.7l-33.4-47.9c0.6-0.5,1.3-0.9,1.9-1.4l19.1,24.5l3.8-3l-5.1-6.5l2-1.6
		l-0.9-1.1l14.5,16.9l3.6-3.1l-28.5-33.2c1-0.9,2-1.8,3-2.7l25.6,26.2l3.4-3.4l-8.2-8.4l0.1-0.1l-17.4-17.7c0.3-0.3,0.5-0.5,0.8-0.8
		l42.6,39.9l3.3-3.5L570.4,317l1.3-1.4l-23.3-21.3c0.5-0.6,1.1-1.2,1.6-1.9l39.1,32.1l3-3.7l-39.2-32.1c0.5-0.6,1-1.2,1.4-1.8
		l25.1,18.4l2.8-3.9L557.4,283c0.4-0.6,0.9-1.2,1.3-1.9l50.4,33.1l2.6-4l-16.4-10.8l1.2-1.9l-34.3-21.9c0.1-0.2,0.2-0.3,0.3-0.5
		l34.4,20l2.4-4.1l-19.5-11.4l0.1-0.1l-14.9-8.6c0.8-1.4,1.6-2.9,2.3-4.3l32.8,16.1l0,0l6.5,3.2l2.1-4.3l-39.3-19.2
		c0.3-0.6,0.5-1.2,0.8-1.8l21,9l1.9-4.4l-4-1.7l0.2-0.4l-17.1-7.3c0.4-0.9,0.7-1.8,1.1-2.7l47.6,17.1l0,0l7.3,2.6l1.6-4.5L575,248.5
		c0-0.1,0-0.1,0.1-0.2l23.7,7.5l0.8-2.4l6,1.8l1.4-4.6l-29.8-8.9c0-0.1,0-0.1,0.1-0.2l7.8,2l0.1-0.3l22.7,5.9l1.2-4.6l-30.5-7.9
		c0.6-2.4,1.1-4.9,1.5-7.4l33.2,5.4l0.8-4.7l-33.2-5.4c0.1-0.8,0.2-1.6,0.3-2.3l15.9,1.7l0.2-2.2l44.2,4.1l0.4-4.8l-60.1-5.6
		C581.8,214.5,581.8,213.7,581.9,212.9z M440.3,321.5c-64.2,0-116.2-52-116.2-116.2c0-64.2,52-116.2,116.2-116.2
		c64.2,0,116.2,52,116.2,116.2C556.5,269.4,504.5,321.5,440.3,321.5z"/>
</g>
</svg>
