<?xml version="1.0" encoding="utf-8"?>
<!-- Generator: Adobe Illustrator 19.0.0, SVG Export Plug-In . SVG Version: 6.00 Build 0)  -->
<svg version="1.1" id="Layer_1" xmlns="http://www.w3.org/2000/svg" xmlns:xlink="http://www.w3.org/1999/xlink" x="0px" y="0px"
	 viewBox="0 0 500 96.6" style="enable-background:new 0 0 500 96.6;" xml:space="preserve">
<style type="text/css">
	.st0{fill:#FFFFFF;}
</style>
<g id="XMLID_728_">
	<g id="XMLID_56_">
		<g id="XMLID_60_">
			<path id="XMLID_177_" class="st0" d="M214,16.4v12.3h-19.3v51.8h-14.4V28.7h-19.3V16.4H214z"/>
			<path id="XMLID_174_" class="st0" d="M263.3,80.5c-0.7-2.2-1.5-4.5-2.3-6.9c-0.8-2.3-1.6-4.7-2.5-7h-25c-0.8,2.3-1.6,4.7-2.4,7
				c-0.8,2.3-1.6,4.6-2.3,6.8h-15c2.4-6.9,4.7-13.3,6.9-19.1c2.2-5.9,4.3-11.4,6.4-16.6c2.1-5.2,4.1-10.1,6.1-14.8
				c2-4.7,4.1-9.2,6.3-13.6h13.7c2.1,4.4,4.2,9,6.2,13.6c2,4.7,4.1,9.6,6.2,14.8c2.1,5.2,4.2,10.7,6.4,16.6
				c2.2,5.9,4.5,12.2,6.9,19.1H263.3z M246,30.9c-0.3,0.9-0.8,2.2-1.4,3.8c-0.6,1.6-1.3,3.5-2.1,5.6c-0.8,2.1-1.7,4.4-2.7,6.9
				c-1,2.5-2,5.2-3,7.9h18.3c-1-2.8-1.9-5.4-2.8-8c-0.9-2.5-1.8-4.8-2.6-7c-0.8-2.1-1.6-3.9-2.2-5.6C246.9,33.1,246.4,31.8,246,30.9
				z"/>
			<path id="XMLID_172_" class="st0" d="M334.4,68.1v12.4h-42.8V16.4H306v51.7H334.4z"/>
			<path id="XMLID_170_" class="st0" d="M348.3,16.4h14.4v64.1h-14.4V16.4z"/>
			<path id="XMLID_168_" class="st0" d="M429.7,16.4v12.3h-19.3v51.8h-14.4V28.7h-19.3V16.4H429.7z"/>
			<path id="XMLID_166_" class="st0" d="M470.2,42.7c2.6-4.4,5.1-8.7,7.4-13.1c2.3-4.4,4.5-8.8,6.5-13.2H500
				c-3.5,6.9-7.2,13.6-10.9,20.1c-3.8,6.5-7.7,13-11.9,19.5v24.5h-14.4V56.2c-4.2-6.5-8.2-13.1-12-19.6c-3.8-6.5-7.4-13.3-11-20.2
				h16.7c2,4.4,4.1,8.8,6.4,13.2C465.2,33.9,467.6,38.3,470.2,42.7z"/>
		</g>
		<g id="XMLID_57_">
			<path id="XMLID_58_" class="st0" d="M53.1,16.4v12.3H33.8v51.8H19.3V28.7H0V16.4H53.1z"/>
		</g>
	</g>
	<path id="XMLID_663_" class="st0" d="M138.5,50.1l9.5,0.4l0-1.1l-3.6-0.1l0-1.1l-5.9-0.1c0-0.1,0-0.2,0-0.3l8.7-0.3v0l1.7-0.1
		l0-1.1l-2.9,0.1l0,0l-7.5,0.3c0-0.2,0-0.3,0-0.5l4.4-0.4l0-0.3l9.4-0.9l-0.1-1.1l-13.8,1.3c0-0.1,0-0.3-0.1-0.4l8.6-1.2l0,0
		l3.3-0.5l0,0l1.8-0.3l-0.2-1.1l-12.2,1.8l-1.5,0.2c0-0.2-0.1-0.4-0.1-0.5l7.3-1.4l-0.1-0.3l6.8-1.4l-0.2-1.1l-14.1,2.9
		c0-0.1,0-0.2-0.1-0.3l15.8-4l-0.3-1.1l-15.8,4c-0.1-0.4-0.2-0.9-0.4-1.3l7.6-2.6l-0.4-1.1l-7.6,2.6c0-0.1-0.1-0.2-0.1-0.3l9.7-3.8
		l-0.4-1.1l-9.7,3.8c-0.3-0.7-0.6-1.3-0.9-2l5.2-2.7l-0.1-0.3l7.1-3.7l-0.5-1l-12.3,6.5c0,0,0,0,0,0l6.5-3.7l-0.6-1l-6.5,3.7
		c-0.1-0.2-0.2-0.3-0.3-0.5l5-3.2l-0.2-0.2l6.7-4.4l-0.6-1L133,30.2c-0.1-0.1-0.1-0.2-0.2-0.3l1.6-1.1l-0.1-0.1l5.5-4l0,0l1.4-1
		l-0.7-0.9l-8.4,6.2c-0.2-0.2-0.3-0.4-0.5-0.6l2-1.7l0,0l9-7.5l-0.7-0.9l-1.8,1.5l-0.2-0.3l-9.2,7.8c0,0,0,0,0,0l12.1-11l-0.8-0.8
		l-6.6,6l-0.4-0.5l-5.4,5.1c-0.2-0.2-0.5-0.5-0.7-0.7l5.1-5.5l-0.8-0.8l-5.1,5.5c-0.1-0.1-0.1-0.1-0.2-0.2l6.8-7.9l-0.9-0.7
		l-6.8,7.9c-0.5-0.4-1-0.8-1.6-1.2l5-7.1l-0.4-0.3l2.9-4.3l-0.9-0.6l-7.8,11.5c-0.2-0.1-0.4-0.3-0.6-0.4l2.1-3.5l-0.1,0L131.7,7
		l-1-0.6l-5.3,8.9l-0.2-0.1l2.9-5.4l-1-0.5l-5.8,10.6c-0.1-0.1-0.2-0.1-0.3-0.2l0.8-1.7l-0.2-0.1l2.4-5l-1-0.5l-3.2,6.7
		c-0.3-0.1-0.6-0.3-0.9-0.4l4.5-11.2l-1.1-0.4l-4.5,11.2c-0.2-0.1-0.3-0.1-0.5-0.2l2.4-7l-0.5-0.2l0.2-0.6l-1.1-0.4l-2.5,7.6
		c-0.2-0.1-0.4-0.1-0.5-0.2l1.9-7.2l-1.1-0.3l-1,3.6l0,0l-1,3.7c-0.6-0.2-1.3-0.3-1.9-0.4l1.2-7.4l-1.1-0.2l-1.2,7.4
		c-0.1,0-0.2,0-0.2,0l1.1-8.6l-0.2,0l0.7-5.6l-1.1-0.1l-1.7,14.3c-0.2,0-0.4,0-0.6,0l0.6-9.5l-0.6,0l0.3-6.8L108.3,0l-0.8,16.3
		c0,0,0,0,0,0l0.1-12.1l-1.1,0l-0.1,6.1H106v5.9c-0.1,0-0.1,0-0.2,0l-0.3-7.4l-1.1,0l0.1,3l-0.8,0l0.3,4.4c-0.2,0-0.5,0-0.7,0.1
		l-1.4-12l0,0l-0.2-1.8l-1.1,0.1l1.7,13.8c-0.2,0-0.4,0-0.5,0.1l-1.4-7.9L99.1,9l0.1,0.6l0,0l1.3,7.3c-0.1,0-0.2,0-0.4,0.1L97.8,6.8
		L96.7,7l1.4,6.5l-0.2,0l0.8,3.7c-0.3,0.1-0.5,0.1-0.7,0.2l-2.5-8.3l-1.1,0.3l2.4,8.3c0,0,0,0-0.1,0l-2.4-7.1l-0.3,0.1l-2.1-6
		l-1.1,0.4l4.5,13.1c-0.1,0-0.1,0-0.2,0.1L90.2,4.9l-1.1,0.4L90,7.5L89,7.9l2.2,5.3l-1.3-2.9l-1,0.5l0.9,1.9L88.9,13l3.2,6.7
		c0,0-0.1,0-0.1,0.1l-2.8-5.2L88.4,15l-1.9-3.3l-1,0.6l4.8,8.4c0,0,0,0,0,0L87.9,17l-1,0.6l2.3,3.8c-0.2,0.1-0.4,0.2-0.6,0.4
		l-6.9-9.9l0,0l-1.1-1.5L79.8,11l7.9,11.4c-0.1,0.1-0.3,0.2-0.4,0.3l-4.5-5.8l-0.9,0.7l3.7,4.7l-0.3,0.3l-5.9-6.8l-0.9,0.7l6.8,7.9
		c-0.2,0.2-0.5,0.4-0.7,0.6l-6.1-6.2l-0.8,0.8l2,2l0,0l4.1,4.2c-0.1,0.1-0.1,0.1-0.2,0.2l-10.2-9.5l-0.8,0.8l4.7,4.4L77,22.1
		l5.5,5.1c-0.1,0.1-0.3,0.3-0.4,0.4l-9.3-7.6l-0.7,0.9l9.3,7.6c-0.1,0.1-0.2,0.3-0.3,0.4l-6-4.4l-0.7,0.9l6,4.4
		c-0.1,0.1-0.2,0.3-0.3,0.4l-12-7.9l-0.6,1l3.9,2.6l-0.3,0.5l8.2,5.2c0,0-0.1,0.1-0.1,0.1L71,26.9l-0.6,1l4.7,2.7l0,0l3.5,2.1
		c-0.2,0.3-0.4,0.7-0.5,1l-7.8-3.8l0,0l-1.5-0.8l-0.5,1l9.3,4.6c-0.1,0.1-0.1,0.3-0.2,0.4L76,34.6l0,0.1l-2.8-1.2l-0.4,1.1l4.1,1.7
		c-0.1,0.2-0.2,0.4-0.3,0.6l-11.3-4.1l0,0l-1.7-0.6l-0.4,1.1L76.2,38c0,0,0,0,0,0l-5.6-1.8l-0.2,0.6l-1.4-0.4l-0.3,1.1l7.1,2.1
		c0,0,0,0,0,0.1l-1.9-0.5l0,0.1l-5.4-1.4L68.1,39l7.3,1.9c-0.1,0.6-0.3,1.2-0.4,1.8l-7.9-1.3l-0.2,1.1l7.9,1.3c0,0.2,0,0.4-0.1,0.6
		L71,43.9l-0.1,0.5l-10.5-1l-0.1,1.1l14.3,1.3c0,0.2,0,0.4,0,0.6l-9.5-0.4l0,1.1l3.6,0.1l0,1.1l5.9,0.1c0,0.1,0,0.2,0,0.3l-8.7,0.3
		v0l-1.7,0.1l0,1.1l2.9-0.1l0,0l7.5-0.3c0,0.2,0,0.3,0,0.5l-4.4,0.4l0,0.3l-9.4,0.9l0.1,1.1l13.8-1.3c0,0.1,0,0.3,0.1,0.4l-8.6,1.2
		v0l-3.3,0.5l0,0L61,54.3l0.2,1.1l13.8-2c0,0.2,0.1,0.4,0.1,0.5l-7.3,1.4l0.1,0.3L61,57.2l0.2,1.1l14.1-2.9c0,0.1,0,0.2,0.1,0.3
		l-15.8,4l0.3,1.1l15.8-4c0.1,0.4,0.2,0.9,0.4,1.3l-7.6,2.6l0.4,1.1l7.6-2.6c0,0.1,0.1,0.2,0.1,0.4l-9.7,3.8l0.4,1.1l9.7-3.8
		c0.3,0.7,0.6,1.3,0.9,2l-5.2,2.7l0.1,0.3l-7.1,3.7l0.5,1l12.3-6.5c0,0,0,0,0,0L72,67.6l0.6,1l6.5-3.7c0.1,0.2,0.2,0.3,0.3,0.5
		l-5,3.2l0.2,0.2l-6.7,4.4l0.6,1l11.6-7.6c0.1,0.1,0.1,0.2,0.2,0.3l-1.6,1.1l0.1,0.1l-5.5,4l0,0l-1.4,1l0.7,0.9l8.4-6.2
		c0.2,0.2,0.3,0.4,0.5,0.6l-2,1.7l0,0l-9,7.5l0.7,0.9l1.8-1.5l0.2,0.3l9.2-7.8c0,0,0,0,0,0l-12.1,11l0.8,0.8l6.6-6l0.4,0.5l5.4-5.1
		c0.2,0.2,0.5,0.5,0.7,0.7l-5.1,5.5l0.8,0.8l5.1-5.5c0.1,0.1,0.1,0.1,0.2,0.2l-6.8,7.9l0.9,0.7l6.8-7.9c0.5,0.4,1,0.8,1.6,1.2
		l-5,7.1l0.4,0.3L80.3,86l0.9,0.6L89,75.1c0.2,0.1,0.4,0.3,0.6,0.4l-2.1,3.5l0.1,0l-6.2,10.5l1,0.6l5.3-8.9l0.2,0.1l-2.9,5.4l1,0.5
		l5.8-10.6c0.1,0.1,0.2,0.1,0.3,0.2l-0.8,1.7l0.2,0.1l-2.4,5l1,0.5l3.2-6.7c0.3,0.1,0.6,0.3,0.9,0.4L89.6,89l1.1,0.4l4.5-11.2
		c0.2,0.1,0.3,0.1,0.5,0.2l-2.4,7l0.5,0.2l-0.2,0.6l1.1,0.4l2.5-7.6c0.2,0.1,0.4,0.1,0.5,0.2l-1.9,7.2l1.1,0.3l1-3.6l0,0l1-3.7
		c0.6,0.2,1.3,0.3,1.9,0.4l-1.2,7.4l1.1,0.2l1.2-7.4c0.1,0,0.2,0,0.2,0l-1.1,8.6l0.2,0l-0.7,5.6l1.1,0.1l1.7-14.3c0.2,0,0.4,0,0.6,0
		l-0.6,9.5l0.6,0l-0.3,6.8l1.1,0.1l0.8-16.3c0,0,0,0,0,0l-0.1,12.1l1.1,0l0.1-6.1h0.4v-5.9c0.1,0,0.1,0,0.2,0l0.3,7.4l1.1,0l-0.1-3
		l0.8,0l-0.3-4.4c0.2,0,0.5,0,0.7-0.1l1.4,12l0,0l0.2,1.8l1.1-0.1L111,80.1c0.2,0,0.4,0,0.5-0.1l1.4,7.9l1.1-0.2l-0.1-0.6l0,0
		l-1.3-7.3c0.1,0,0.2,0,0.4-0.1l2.3,10.2l1.1-0.2l-1.4-6.5l0.2,0l-0.8-3.7c0.3-0.1,0.5-0.1,0.7-0.2l2.5,8.3l1.1-0.3l-2.4-8.3
		c0,0,0,0,0.1,0l2.4,7.1l0.3-0.1l2.1,6l1.1-0.4l-4.5-13.1c0.1,0,0.1,0,0.2-0.1l5.2,13.4l1.1-0.4l-0.8-2.2l0.9-0.4l-2.2-5.3l1.3,2.9
		l1-0.5l-0.9-1.9l0.8-0.4l-3.2-6.7c0,0,0.1,0,0.1-0.1l2.8,5.2l0.9-0.5l1.9,3.3l1-0.6l-4.8-8.4c0,0,0,0,0,0l2.3,3.8l1-0.6l-2.3-3.8
		c0.2-0.1,0.4-0.2,0.6-0.4l6.9,9.9l0,0l1.1,1.5l0.9-0.7l-7.9-11.4c0.1-0.1,0.3-0.2,0.4-0.3l4.5,5.8l0.9-0.7l-1.2-1.6l0.5-0.4
		l-0.2-0.3l3.5,4l0.9-0.7l-6.8-7.9c0.2-0.2,0.5-0.4,0.7-0.6l6.1,6.2l0.8-0.8l-2-2l0,0l-4.1-4.2c0.1-0.1,0.1-0.1,0.2-0.2l10.2,9.5
		l0.8-0.8l-4.7-4.4l0.3-0.3l-5.5-5.1c0.1-0.1,0.3-0.3,0.4-0.4l9.3,7.6l0.7-0.9l-9.3-7.6c0.1-0.1,0.2-0.3,0.3-0.4l6,4.4l0.7-0.9
		l-6-4.4c0.1-0.1,0.2-0.3,0.3-0.4l12,7.9l0.6-1l-3.9-2.6l0.3-0.5l-8.2-5.2c0,0,0.1-0.1,0.1-0.1l8.2,4.8l0.6-1l-4.7-2.7l0,0l-3.5-2.1
		c0.2-0.3,0.4-0.7,0.5-1l7.8,3.8l0,0l1.5,0.8l0.5-1l-9.3-4.6c0.1-0.1,0.1-0.3,0.2-0.4l5,2.1l0.5-1.1l-0.9-0.4l0-0.1l-4.1-1.7
		c0.1-0.2,0.2-0.4,0.3-0.6l11.3,4.1l0,0l1.7,0.6l0.4-1.1l-13.1-4.7c0,0,0,0,0,0l5.6,1.8l0.2-0.6l1.4,0.4l0.3-1.1l-7.1-2.1
		c0,0,0,0,0-0.1l1.9,0.5l0-0.1l5.4,1.4l0.3-1.1l-7.3-1.9c0.1-0.6,0.3-1.2,0.4-1.8l7.9,1.3l0.2-1.1l-7.9-1.3c0-0.2,0-0.4,0.1-0.6
		l3.8,0.4l0.1-0.5l10.5,1l0.1-1.1l-14.3-1.3C138.5,50.5,138.5,50.3,138.5,50.1z M104.8,76c-15.3,0-27.7-12.4-27.7-27.7
		c0-15.3,12.4-27.7,27.7-27.7c15.3,0,27.7,12.4,27.7,27.7C132.5,63.6,120.1,76,104.8,76z"/>
</g>
</svg>
