<?xml version="1.0" standalone="no"?>
<!DOCTYPE svg PUBLIC "-//W3C//DTD SVG 20010904//EN"
 "http://www.w3.org/TR/2001/REC-SVG-20010904/DTD/svg10.dtd">
<svg version="1.0" xmlns="http://www.w3.org/2000/svg"
 width="2759.000000pt" height="2759.000000pt" viewBox="0 0 2759.000000 2759.000000"
 preserveAspectRatio="xMidYMid meet">
<metadata>
Created by potrace 1.11, written by Peter Selinger 2001-2013
</metadata>
<g transform="translate(0.000000,2759.000000) scale(0.100000,-0.100000)"
fill="#000000" stroke="none">
<path d="M12819 25740 c0 -921 -1 -1966 -1 -2322 l0 -648 -37 -1 c-20 -1 -47
-2 -61 -4 -14 -1 -63 -5 -110 -9 -46 -4 -87 -9 -90 -11 -3 -2 -32 -6 -65 -10
-33 -3 -71 -8 -85 -10 -14 -2 -45 -6 -70 -9 -25 -2 -61 -7 -80 -10 -19 -3 -51
-8 -70 -11 -38 -5 -81 -13 -120 -20 -14 -3 -38 -8 -55 -10 -30 -5 -96 -17
-105 -20 -3 -1 -30 -5 -60 -10 -30 -5 -57 -9 -60 -10 -3 -1 -18 -4 -35 -8 -16
-4 -39 -9 -50 -11 -11 -2 -51 -12 -90 -21 -38 -9 -83 -19 -100 -22 -49 -8
-284 -70 -472 -124 -96 -28 -179 -47 -183 -42 -10 11 -49 117 -195 528 -23 66
-73 203 -109 305 -37 102 -81 223 -97 270 -17 47 -34 94 -39 105 -9 19 -271
745 -313 865 -10 30 -85 240 -167 465 -155 429 -247 682 -325 900 -74 209 -91
250 -101 248 -5 -1 -151 -67 -324 -146 -173 -79 -337 -154 -365 -167 -27 -12
-84 -38 -125 -57 -41 -20 -93 -43 -115 -53 -65 -29 -154 -69 -253 -116 -52
-24 -95 -44 -97 -44 -2 0 -47 -21 -102 -46 -54 -25 -111 -52 -128 -59 -28 -13
-236 -108 -710 -325 -110 -50 -204 -95 -208 -99 -7 -7 44 -116 73 -156 4 -5
21 -35 37 -65 54 -99 95 -172 188 -340 51 -91 107 -192 125 -225 18 -33 40
-73 50 -90 26 -45 68 -120 150 -270 18 -33 53 -96 78 -140 25 -44 55 -98 67
-120 19 -36 87 -157 143 -257 12 -21 38 -68 58 -105 20 -37 40 -72 44 -78 4
-5 23 -39 42 -75 42 -77 67 -122 161 -290 38 -69 82 -147 97 -175 43 -79 79
-144 126 -226 24 -42 44 -81 44 -87 0 -6 3 -12 8 -14 4 -1 19 -25 34 -53 14
-27 103 -187 196 -354 l170 -304 -209 -131 c-359 -225 -576 -383 -725 -528
l-130 -128 -68 74 c-37 41 -82 90 -99 109 -18 18 -77 83 -132 142 -55 60 -121
132 -147 160 -26 28 -55 60 -65 71 -15 18 -126 139 -248 269 -16 18 -68 75
-115 126 -47 51 -94 102 -105 114 -11 11 -63 68 -115 125 -122 134 -126 138
-185 202 -40 42 -232 250 -280 304 -5 6 -51 55 -102 110 -50 54 -100 108 -110
120 -21 24 -196 215 -233 253 -14 14 -72 78 -130 141 -58 63 -114 124 -125
136 -11 11 -59 63 -106 115 -167 182 -195 212 -252 273 l-57 61 -53 -56 c-115
-124 -263 -281 -321 -342 -33 -35 -110 -117 -171 -182 -136 -145 -149 -160
-255 -271 -96 -102 -309 -329 -366 -389 -20 -22 -94 -101 -164 -175 -70 -74
-142 -151 -160 -170 -53 -58 -262 -280 -303 -322 -20 -22 -37 -43 -37 -48 0
-4 37 -36 83 -71 45 -35 111 -86 147 -113 35 -27 181 -140 325 -250 143 -110
265 -204 270 -209 6 -4 116 -89 245 -188 129 -100 244 -188 255 -197 11 -10
77 -60 145 -112 69 -52 130 -99 137 -105 17 -14 32 -26 78 -59 22 -17 42 -33
45 -36 3 -3 50 -39 105 -80 55 -41 102 -77 105 -80 8 -9 182 -144 206 -160 12
-8 118 -89 235 -180 118 -91 228 -176 246 -190 219 -166 310 -237 321 -247 7
-7 33 -27 57 -44 25 -18 45 -36 45 -39 0 -4 -21 -35 -47 -68 -27 -33 -56 -71
-65 -83 -9 -13 -38 -53 -65 -89 -268 -361 -498 -726 -738 -1175 -21 -38 -38
-71 -40 -72 -1 -2 -66 29 -146 68 -147 73 -392 193 -714 349 -99 48 -297 145
-440 215 -143 70 -341 167 -440 215 -99 48 -260 126 -357 174 -97 47 -179 86
-182 86 -2 0 -37 15 -78 34 -40 18 -129 58 -198 89 -69 30 -154 69 -190 85
-36 16 -101 45 -145 65 -44 19 -100 44 -125 55 -41 18 -284 127 -385 172 -22
10 -91 41 -153 69 -63 28 -117 51 -122 51 -4 0 -171 -492 -370 -1092 -199
-601 -386 -1164 -416 -1251 -36 -109 -49 -160 -41 -163 7 -2 739 -247 1627
-544 888 -297 1730 -579 1871 -626 l257 -86 -9 -32 c-11 -39 -68 -309 -75
-356 -3 -19 -9 -53 -14 -75 -5 -22 -12 -62 -15 -90 -4 -27 -8 -57 -10 -65 -3
-8 -7 -33 -10 -55 -3 -22 -11 -67 -16 -100 -12 -69 -15 -85 -24 -175 -3 -36
-8 -72 -10 -80 -2 -8 -7 -55 -10 -104 -4 -50 -8 -97 -10 -106 -2 -8 -6 -53
-10 -100 -3 -47 -8 -96 -10 -110 -7 -40 -14 -244 -20 -530 -3 -145 -7 -265 -8
-266 -1 -2 -83 -5 -182 -8 -99 -3 -236 -8 -305 -11 -69 -2 -206 -7 -305 -10
-99 -3 -232 -8 -295 -10 -63 -2 -200 -7 -305 -10 -280 -9 -387 -12 -900 -30
-55 -2 -165 -6 -245 -9 -80 -4 -206 -8 -280 -11 -293 -9 -548 -18 -610 -20
-36 -1 -120 -4 -187 -5 -68 -2 -123 -7 -123 -12 0 -5 4 -28 10 -51 5 -23 21
-103 35 -177 15 -74 28 -146 31 -160 3 -14 11 -56 19 -95 8 -38 39 -200 70
-360 76 -392 113 -580 125 -640 6 -27 12 -59 14 -70 2 -11 22 -113 45 -226 22
-113 43 -221 46 -240 3 -19 8 -41 10 -49 2 -8 7 -28 9 -45 5 -30 21 -108 31
-155 3 -14 7 -38 10 -55 6 -33 6 -35 35 -185 12 -58 23 -116 26 -130 2 -14 11
-59 19 -100 9 -41 17 -86 20 -100 3 -14 9 -47 15 -75 5 -27 12 -61 14 -75 3
-14 18 -92 35 -175 16 -82 60 -303 96 -490 37 -187 75 -385 87 -440 11 -55 22
-111 24 -125 6 -33 44 -229 50 -255 2 -11 7 -36 10 -55 12 -74 9 -72 67 -49
29 11 61 24 72 28 11 5 142 57 290 115 149 58 284 111 300 117 17 7 32 13 35
13 3 1 75 29 160 63 85 34 254 101 375 148 121 47 229 90 240 95 17 8 500 198
635 250 25 10 149 58 275 108 1115 440 1089 430 1101 413 6 -9 21 -41 33 -71
50 -120 178 -394 236 -505 137 -262 172 -327 217 -405 26 -47 53 -92 58 -100
6 -8 13 -22 17 -30 4 -8 31 -55 61 -104 29 -48 50 -92 45 -96 -7 -7 -69 -49
-358 -244 -49 -34 -92 -63 -95 -66 -3 -3 -41 -30 -85 -60 -44 -29 -114 -77
-155 -105 -41 -29 -127 -87 -190 -130 -165 -112 -323 -220 -410 -280 -204
-140 -307 -211 -387 -265 -99 -67 -355 -242 -593 -405 -88 -60 -171 -117 -183
-125 -13 -8 -46 -31 -74 -50 -28 -19 -118 -81 -200 -136 -81 -56 -224 -154
-316 -217 -93 -64 -174 -118 -180 -120 -12 -4 51 -101 215 -330 7 -10 102
-142 210 -295 109 -152 204 -286 212 -297 20 -28 215 -301 391 -550 82 -115
154 -215 160 -222 5 -7 46 -64 90 -127 44 -63 83 -115 88 -116 4 0 182 149
395 331 464 396 469 400 489 419 9 8 33 29 54 45 28 23 560 476 729 621 14 12
95 81 180 154 230 197 262 224 274 235 6 6 36 30 66 55 30 25 62 52 70 60 9 8
40 35 70 60 76 64 201 171 225 193 11 11 36 31 55 46 19 14 40 31 45 37 6 6
37 33 70 60 33 27 62 52 65 55 12 14 280 239 285 239 3 0 55 -48 114 -107 137
-136 312 -300 416 -389 44 -38 82 -71 85 -74 37 -39 307 -255 469 -375 45 -33
81 -62 81 -64 0 -3 -11 -21 -23 -40 -13 -20 -40 -61 -59 -91 -19 -30 -73 -115
-119 -187 -46 -73 -91 -144 -99 -157 -27 -43 -158 -249 -404 -636 -48 -74 -92
-144 -99 -155 -6 -11 -28 -44 -47 -75 -19 -31 -39 -63 -45 -72 -5 -9 -95 -150
-200 -314 -104 -164 -192 -302 -194 -308 -2 -6 -7 -13 -11 -16 -3 -3 -24 -34
-45 -70 -21 -36 -41 -67 -45 -70 -5 -5 -75 -114 -125 -196 -19 -32 -302 -477
-478 -752 -48 -75 -94 -149 -102 -163 l-14 -26 181 -99 c100 -54 214 -116 252
-137 150 -81 242 -131 271 -147 17 -9 111 -61 210 -115 218 -118 278 -151 330
-180 22 -12 67 -37 100 -55 33 -18 360 -196 727 -396 366 -200 670 -364 675
-364 5 0 19 28 33 63 13 34 30 73 37 87 7 14 13 30 13 36 0 6 6 24 14 40 8 16
44 106 81 199 102 260 344 867 355 890 5 11 52 130 105 265 54 135 103 259
110 275 7 17 144 361 304 765 161 404 298 749 306 765 7 17 37 90 66 163 42
106 56 131 69 126 40 -18 574 -197 635 -214 39 -10 122 -32 185 -50 118 -32
339 -89 375 -96 11 -2 31 -6 45 -9 14 -3 34 -7 45 -9 11 -3 54 -12 95 -21 41
-9 91 -18 110 -21 77 -11 70 67 65 -727 -3 -392 -7 -1074 -10 -1517 -3 -443
-7 -1168 -10 -1611 l-5 -807 1235 0 c679 -1 1235 2 1236 6 2 29 0 290 -5 702
-12 849 -15 1045 -21 1525 -3 259 -8 605 -10 770 -3 165 -7 518 -10 785 -4
267 -7 542 -9 613 -2 109 0 127 13 128 9 0 34 2 56 4 22 2 69 6 105 10 36 3
76 7 90 9 14 2 52 7 85 11 95 11 337 44 370 50 51 10 248 46 305 55 71 12 93
16 198 41 48 12 96 23 107 25 16 3 201 49 275 68 69 18 65 20 85 -26 10 -24
43 -95 73 -158 74 -157 129 -274 162 -345 15 -33 53 -114 85 -180 88 -184 115
-245 115 -255 0 -6 5 -10 10 -10 6 0 10 -6 10 -13 0 -6 25 -63 55 -124 30 -62
55 -114 55 -117 0 -2 31 -68 69 -148 38 -79 80 -168 94 -198 14 -30 47 -102
75 -160 27 -58 84 -179 127 -270 43 -91 99 -210 125 -265 26 -55 62 -131 80
-170 17 -38 48 -104 68 -145 19 -41 54 -115 77 -165 24 -49 64 -135 90 -190
26 -55 60 -128 76 -163 l29 -63 192 99 c106 55 306 157 443 227 138 70 318
162 400 205 83 43 272 139 420 215 149 76 347 177 440 225 94 48 296 152 450
230 154 78 284 146 288 150 5 4 2 18 -6 31 -8 13 -28 49 -44 79 -17 30 -61
109 -98 175 -76 135 -90 160 -165 295 -30 52 -72 129 -95 170 -23 41 -55 98
-70 125 -15 28 -35 64 -45 80 -10 17 -29 50 -42 75 -14 25 -98 176 -188 335
-89 160 -184 328 -210 375 -26 47 -60 108 -75 135 -16 28 -57 101 -93 164 -35
62 -85 152 -111 200 -27 47 -77 138 -113 201 -35 63 -77 136 -91 162 -15 26
-46 83 -70 125 -82 144 -119 214 -115 217 1 2 43 29 92 60 48 31 165 112 260
179 169 119 236 172 415 321 73 60 83 69 131 106 25 19 51 41 59 48 8 7 46 39
85 70 38 31 78 63 87 72 9 8 62 58 119 110 57 52 164 154 238 226 l135 132 86
-82 c47 -44 91 -85 97 -91 6 -5 65 -60 130 -122 65 -61 138 -129 160 -150 23
-21 94 -87 159 -148 65 -60 129 -121 144 -134 14 -13 62 -58 106 -100 103 -97
341 -320 424 -397 35 -32 83 -77 106 -99 24 -22 98 -92 166 -155 68 -63 155
-145 194 -181 135 -127 161 -152 269 -252 60 -56 122 -114 137 -128 15 -14 83
-78 151 -141 68 -64 139 -130 158 -148 37 -34 248 -232 334 -313 l51 -48 40
44 c22 24 83 93 135 153 52 60 97 111 100 114 3 3 32 37 65 75 33 39 64 75 70
81 13 14 97 110 205 234 45 52 110 127 144 165 35 39 78 88 97 110 45 53 307
353 379 435 32 36 71 81 86 100 33 40 80 94 109 124 11 12 45 50 75 86 30 36
71 83 91 105 20 22 49 55 64 73 27 33 28 34 9 51 -15 14 -190 162 -299 253
-61 50 -187 156 -230 193 -27 23 -185 156 -350 294 -165 139 -311 262 -325
274 -14 12 -50 42 -80 67 -30 25 -57 47 -60 50 -4 5 -150 128 -670 564 -152
128 -320 270 -370 313 -14 12 -44 36 -66 55 -48 38 -404 337 -420 353 -6 5
-67 57 -136 115 l-126 105 34 60 c77 138 303 598 349 710 7 17 26 62 43 100
92 209 227 575 302 820 35 114 80 265 85 281 2 7 76 -8 207 -43 111 -30 219
-59 238 -63 72 -18 284 -74 457 -121 40 -11 80 -22 90 -24 10 -1 113 -29 228
-60 116 -31 217 -58 225 -60 8 -1 103 -26 210 -55 213 -57 446 -119 470 -124
26 -7 250 -66 348 -92 51 -14 100 -27 110 -29 19 -5 226 -60 377 -100 55 -15
105 -28 110 -29 6 -2 30 -8 55 -15 25 -7 53 -15 64 -17 10 -2 44 -11 75 -20
31 -9 64 -18 75 -20 10 -2 102 -26 205 -53 254 -68 418 -111 423 -111 3 0 5 6
5 13 0 6 3 28 6 47 3 19 13 78 22 130 8 52 17 104 19 116 2 12 7 45 11 75 4
30 8 57 10 60 2 3 7 27 10 55 8 55 11 76 19 119 2 17 8 50 11 75 3 25 8 52 10
60 2 8 6 33 10 55 3 22 12 78 20 125 7 47 16 99 19 115 7 51 27 169 32 200 3
17 7 41 9 55 2 14 6 39 9 55 2 17 8 50 11 75 4 25 9 54 11 65 4 18 26 156 40
240 2 17 6 44 8 60 2 17 9 57 15 90 6 33 13 78 16 100 3 22 8 51 11 65 2 14 6
36 9 49 2 12 7 43 10 68 2 24 7 48 9 51 2 4 7 30 10 57 3 28 10 74 16 104 5
30 8 56 5 59 -2 3 -21 6 -42 8 -51 4 -168 14 -218 19 -22 2 -74 7 -115 10 -41
3 -86 8 -100 10 -14 2 -55 6 -92 9 -38 3 -98 9 -135 12 -38 3 -79 7 -93 9 -14
2 -61 7 -105 10 -44 3 -96 8 -115 11 -19 2 -63 6 -97 9 -81 6 -176 15 -233 21
-25 2 -67 6 -95 8 -83 7 -188 17 -220 21 -16 2 -66 7 -110 10 -44 3 -91 8
-103 10 -13 2 -60 7 -105 10 -45 3 -98 8 -117 10 -19 2 -63 7 -97 10 -35 3
-91 7 -125 10 -35 3 -79 8 -98 10 -19 3 -66 7 -105 10 -38 4 -86 8 -105 10
-19 2 -71 6 -115 10 -44 3 -96 8 -115 10 -19 2 -64 7 -100 10 -36 4 -83 8
-105 10 -22 3 -71 7 -110 10 -80 6 -152 13 -210 20 -22 2 -76 7 -120 10 -44 3
-91 7 -105 10 -14 2 -63 7 -110 11 -46 3 -96 8 -110 9 -25 4 -184 17 -208 18
-11 0 -12 24 -7 116 19 340 19 961 0 1128 -7 58 -11 55 110 68 123 13 151 16
180 20 17 2 57 7 90 10 33 3 74 8 90 10 36 5 227 26 275 30 19 2 58 6 85 9 28
4 70 8 95 11 25 3 61 7 80 10 19 2 62 7 95 10 61 6 125 13 180 20 30 3 88 10
180 21 28 3 66 7 85 9 74 7 166 16 195 20 71 9 133 17 170 21 58 5 133 14 186
20 25 3 63 7 85 9 43 4 113 12 189 21 28 4 61 8 75 9 14 1 52 6 85 10 33 4 81
8 107 10 26 2 65 6 85 9 42 6 129 16 183 21 35 3 98 11 175 20 22 2 67 7 100
10 33 4 71 8 85 11 14 2 52 6 85 9 33 3 71 8 85 10 22 3 63 8 189 21 75 7 137
14 176 19 22 2 67 7 100 10 33 4 71 8 85 10 14 2 54 6 90 10 36 4 76 8 90 10
14 2 52 6 85 10 33 3 69 8 80 10 11 2 23 4 28 4 4 1 5 11 3 24 -3 12 -8 63
-11 112 -4 50 -8 113 -10 140 -2 28 -6 86 -10 130 -7 105 -14 186 -20 260 -3
33 -7 89 -10 125 -2 36 -6 90 -9 120 -3 30 -8 96 -11 145 -3 50 -8 111 -11
138 -2 26 -6 82 -9 125 -3 42 -7 100 -10 127 -2 28 -7 84 -10 125 -3 41 -7
100 -10 130 -2 30 -7 89 -10 130 -3 41 -8 102 -11 135 -9 118 -13 171 -20 264
-3 51 -8 101 -9 110 -2 9 -4 33 -4 55 -1 38 -1 38 -33 32 -18 -3 -55 -13 -83
-21 -27 -8 -113 -30 -190 -49 -77 -19 -156 -40 -175 -46 -19 -6 -46 -12 -60
-15 -14 -3 -52 -12 -85 -21 -33 -8 -67 -17 -75 -19 -8 -2 -62 -15 -120 -30
-58 -15 -112 -28 -120 -30 -8 -2 -96 -25 -195 -50 -326 -84 -530 -136 -545
-140 -8 -2 -53 -13 -100 -25 -47 -12 -93 -24 -103 -26 -10 -2 -27 -6 -37 -9
-10 -3 -27 -8 -37 -10 -10 -2 -72 -18 -138 -35 -66 -17 -127 -33 -135 -35 -8
-2 -87 -22 -175 -45 -88 -22 -168 -43 -178 -45 -10 -2 -27 -7 -37 -10 -10 -3
-27 -7 -37 -9 -10 -2 -142 -36 -293 -74 -151 -39 -444 -114 -650 -166 -633
-161 -829 -211 -858 -220 -17 -6 -24 9 -57 126 -33 116 -164 516 -208 633 -22
61 -107 276 -122 310 -7 17 -25 59 -40 95 -44 104 -105 238 -173 380 -23 46
-40 85 -39 85 1 1 58 33 127 70 151 82 134 73 555 308 187 104 363 202 390
217 28 15 168 93 313 174 145 80 265 146 267 146 3 0 29 16 59 35 30 19 57 35
60 35 3 0 281 153 618 341 337 188 640 356 673 374 151 83 839 466 843 470 2
2 -7 23 -21 47 -32 54 -173 270 -184 283 -5 6 -12 17 -16 25 -4 8 -54 87 -111
175 -97 148 -136 208 -281 435 -30 47 -63 96 -72 109 -10 13 -31 46 -48 73
-16 27 -61 97 -100 156 -38 59 -109 168 -157 242 -48 74 -92 140 -97 147 -6 7
-11 15 -11 18 0 4 -13 25 -29 48 -16 23 -50 76 -77 117 -26 41 -80 125 -119
185 -40 61 -92 142 -117 180 -39 60 -260 402 -462 715 -34 52 -72 112 -85 133
-25 41 -38 45 -67 19 -10 -9 -80 -69 -154 -133 -168 -143 -478 -408 -505 -430
-85 -72 -255 -217 -275 -235 -14 -12 -74 -64 -135 -115 -60 -52 -115 -98 -121
-104 -6 -5 -29 -25 -52 -43 -23 -19 -52 -44 -65 -55 -13 -12 -35 -31 -48 -42
-102 -86 -365 -311 -369 -315 -3 -3 -63 -55 -135 -115 -71 -59 -134 -113 -140
-119 -5 -6 -37 -34 -70 -61 -55 -47 -282 -240 -404 -344 -73 -63 -92 -79 -121
-103 -14 -12 -52 -44 -85 -73 -33 -28 -71 -60 -84 -71 -13 -10 -28 -24 -35
-29 -6 -6 -72 -62 -146 -125 -74 -63 -148 -127 -165 -141 -16 -15 -82 -70
-145 -124 -63 -54 -139 -119 -169 -144 -29 -25 -57 -46 -61 -46 -4 0 -73 63
-152 140 -344 332 -593 547 -893 770 -66 49 -121 90 -123 91 -2 1 31 54 72
118 42 64 76 119 76 122 0 2 5 10 10 17 6 7 34 48 62 92 28 44 79 123 113 175
34 52 124 193 201 312 76 120 160 250 187 290 26 40 50 80 54 88 4 8 39 63 78
122 38 59 111 171 160 248 50 78 129 201 176 273 47 73 102 159 123 192 20 33
100 157 176 275 121 186 160 247 240 375 28 45 125 195 175 273 28 42 99 154
159 247 60 94 132 206 161 250 28 44 73 115 101 157 27 43 79 124 116 180 37
57 68 108 68 113 0 6 -98 54 -218 107 -119 54 -323 145 -452 204 -129 58 -296
133 -370 166 -74 33 -157 70 -185 83 -128 58 -186 85 -265 120 -47 20 -107 48
-135 60 -27 13 -140 64 -250 113 -110 49 -237 107 -283 127 -48 22 -86 34 -91
29 -4 -5 -110 -236 -236 -514 -125 -278 -240 -532 -255 -565 -15 -33 -51 -112
-80 -175 -29 -63 -66 -144 -82 -180 -42 -92 -36 -79 -256 -565 -110 -242 -210
-462 -222 -490 -12 -27 -35 -77 -50 -110 -16 -33 -49 -107 -75 -165 -26 -58
-57 -127 -70 -155 -12 -27 -32 -72 -45 -100 -12 -27 -35 -77 -50 -110 -15 -33
-69 -152 -120 -265 -51 -113 -107 -236 -125 -275 -31 -66 -111 -242 -141 -312
l-14 -32 -77 35 c-141 64 -156 71 -343 144 -102 39 -205 80 -230 90 -115 45
-527 175 -730 230 -124 33 -243 65 -264 71 -22 6 -49 13 -60 15 -12 2 -95 19
-186 38 -91 19 -182 38 -202 42 -21 3 -36 9 -34 13 2 3 7 31 10 61 4 30 8 66
11 80 2 14 23 149 45 300 22 151 42 291 45 310 3 19 15 98 26 175 11 77 22
151 24 165 2 14 6 45 10 70 3 25 8 56 10 70 6 32 12 74 20 130 3 25 8 56 10
70 2 14 6 45 10 70 3 25 8 56 10 70 9 49 15 89 20 131 3 24 7 55 10 69 2 14 7
45 10 70 3 25 11 74 16 110 15 100 17 111 25 170 4 30 8 57 9 60 1 3 5 30 9
60 5 30 9 62 11 70 1 8 6 38 9 65 4 28 9 61 11 75 2 14 9 61 15 105 6 44 14
94 16 110 3 17 19 122 35 235 16 113 32 216 34 230 2 14 7 45 10 70 10 70 16
113 20 140 8 51 34 226 39 265 11 76 16 119 20 144 3 14 8 46 11 71 4 25 9 52
10 61 2 9 6 40 10 69 4 29 8 61 10 70 2 9 6 41 10 70 4 29 8 60 10 69 5 30 16
96 19 126 7 54 18 130 21 145 2 8 8 51 15 95 6 44 13 90 15 101 2 12 6 46 10
76 l7 53 -194 -2 c-319 -5 -1498 -6 -2215 -2 l-673 4 -1 -1675z m621 -7373
c30 -4 82 -9 115 -12 33 -3 71 -8 85 -9 14 -2 61 -9 106 -15 77 -11 98 -14
154 -26 14 -2 41 -7 60 -10 112 -18 371 -85 540 -140 390 -126 796 -322 1134
-547 172 -115 245 -170 439 -328 194 -158 529 -510 684 -717 32 -43 63 -84 70
-91 25 -26 223 -331 281 -432 245 -429 426 -907 522 -1380 12 -58 23 -116 25
-130 2 -14 6 -36 9 -50 3 -14 8 -47 11 -74 3 -27 8 -52 9 -55 2 -3 7 -43 10
-88 4 -46 9 -91 10 -100 25 -129 25 -669 1 -890 -22 -202 -42 -327 -81 -512
-54 -263 -164 -625 -244 -806 -89 -201 -123 -273 -186 -393 -103 -197 -201
-357 -348 -566 -51 -72 -205 -265 -285 -356 -63 -72 -290 -302 -381 -386 -230
-211 -582 -458 -903 -635 -159 -87 -458 -221 -632 -282 -219 -77 -458 -145
-605 -173 -14 -2 -45 -9 -70 -14 -41 -9 -57 -12 -130 -24 -14 -3 -59 -9 -100
-15 -72 -10 -100 -14 -200 -25 -229 -27 -730 -27 -945 -1 -16 2 -55 6 -85 10
-30 3 -66 8 -80 10 -246 36 -363 60 -588 121 -453 124 -855 300 -1257 553
-105 66 -144 92 -264 178 -110 79 -275 214 -396 323 -123 112 -361 360 -429
448 -11 15 -26 33 -33 40 -7 7 -48 59 -91 115 -379 492 -662 1071 -816 1667
-30 119 -61 255 -71 315 -30 179 -50 330 -61 460 -3 39 -7 88 -9 110 -6 50 -6
466 0 557 7 123 18 240 30 328 3 19 8 53 10 75 5 34 11 70 29 170 2 11 6 36
10 55 11 64 14 75 51 224 154 626 445 1225 842 1736 173 223 464 526 668 695
33 28 62 53 65 56 3 4 57 45 120 93 63 47 121 91 127 96 27 23 303 199 378
242 187 107 436 226 618 297 12 5 36 14 52 21 30 13 286 99 315 106 8 2 40 11
70 19 213 61 504 120 690 140 30 3 71 8 90 10 19 3 71 8 115 11 44 3 81 7 83
9 6 5 601 -2 662 -8z"/>
</g>
</svg>
